<svg viewBox="0 0 512 512" xmlns="http://www.w3.org/2000/svg"><path d="M256 112c-79.4 0-144 64.6-144 144s64.6 144 144 144 144-64.6 144-144-64.6-144-144-144zm0 224c-44.18 0-80-35.82-80-80s35.8-80 80-80c44.18 0 80 35.82 80 80s-35.8 80-80 80zm0-112c-17.6 0-32 14.4-32 32s14.36 32 32 32 32-14.36 32-32-14.4-32-32-32zm0-224C114.8 0 0 114.8 0 256s114.8 256 256 256 256-114.8 256-256S397.2 0 256 0zm0 448c-106 0-192-85.96-192-192S149.96 64 256 64s192 85.96 192 192-86 192-192 192z" fill="#ffffff" class="fill-000000"></path></svg>